<svg width="44" height="44" viewBox="0 0 44 44" fill="none" xmlns="http://www.w3.org/2000/svg">
<rect width="44" height="44" rx="4" fill="#EFF6F3"/>
<g clip-path="url(#clip0_47_19381)">
<path d="M33.12 19.9099L29.25 15.9999C29.157 15.9062 29.0464 15.8318 28.9246 15.781C28.8027 15.7302 28.672 15.7041 28.54 15.7041C28.408 15.7041 28.2773 15.7302 28.1554 15.781C28.0336 15.8318 27.923 15.9062 27.83 15.9999C27.6437 16.1873 27.5392 16.4407 27.5392 16.7049C27.5392 16.9691 27.6437 17.2225 27.83 17.4099L31.39 20.9999H11C10.7348 20.9999 10.4804 21.1053 10.2929 21.2928C10.1054 21.4803 10 21.7347 10 21.9999V21.9999C10 22.2651 10.1054 22.5195 10.2929 22.707C10.4804 22.8945 10.7348 22.9999 11 22.9999H31.45L27.83 26.6099C27.7363 26.7029 27.6619 26.8135 27.6111 26.9353C27.5603 27.0572 27.5342 27.1879 27.5342 27.3199C27.5342 27.4519 27.5603 27.5826 27.6111 27.7045C27.6619 27.8263 27.7363 27.9369 27.83 28.0299C27.923 28.1236 28.0336 28.198 28.1554 28.2488C28.2773 28.2996 28.408 28.3257 28.54 28.3257C28.672 28.3257 28.8027 28.2996 28.9246 28.2488C29.0464 28.198 29.157 28.1236 29.25 28.0299L33.12 24.1499C33.6818 23.5874 33.9974 22.8249 33.9974 22.0299C33.9974 21.2349 33.6818 20.4724 33.12 19.9099Z" fill="#3A4F39"/>
</g>
<defs>
<clipPath id="clip0_47_19381">
<rect width="24" height="24" fill="white" transform="translate(10 10)"/>
</clipPath>
</defs>
</svg>
