<svg width="265" height="307" viewBox="0 0 265 307" fill="none" xmlns="http://www.w3.org/2000/svg">
<path d="M-283.476 279.375C-283.476 279.375 -87.3913 -96.875 264.377 23.8999C264.377 23.8999 129.972 95.9364 77.1802 181.898C33.5459 252.864 -75.8093 357.303 -283.476 279.375Z" fill="#F0F5EE"/>
<g style="mix-blend-mode:multiply">
<path d="M-185.975 276.805L-175.748 261.837C-172.249 257.025 -168.481 252.481 -164.982 247.67L-159.599 240.453L-153.678 233.503C-149.91 228.959 -146.142 224.415 -142.105 219.871C-125.957 202.23 -108.462 185.657 -90.1608 170.154C-53.2885 139.415 -12.379 113.487 30.9528 92.9056C74.2845 72.3239 120.039 56.5535 166.869 48C143.902 54.2369 121.474 61.8993 99.5838 70.9874C77.5142 79.719 55.8933 89.5199 34.7208 100.39C13.9969 111.349 -6.72699 123.377 -26.3743 136.208C-46.0216 149.305 -65.1308 163.204 -83.1632 178.44C-101.196 193.409 -118.421 209.714 -134.3 226.821C-150.179 244.195 -165.251 262.371 -178.708 281.616C-183.553 288.566 -188.308 295.694 -192.973 303C-195.664 302.644 -198.356 302.198 -201.047 301.664C-196.203 293.377 -191.358 284.824 -185.975 276.805Z" fill="#E8EEE7"/>
</g>
</svg>
