<svg width="21" height="28" viewBox="0 0 21 28" fill="none" xmlns="http://www.w3.org/2000/svg">
<path id="Vector" d="M10.2273 0.00390625C7.51483 0.00390625 4.91349 1.05733 2.9955 2.93243C1.07751 4.80753 0 7.35071 0 10.0025C0 15.2836 9.11157 26.4547 9.50207 26.9365C9.58919 27.0426 9.69958 27.1283 9.8251 27.1872C9.95062 27.2461 10.0881 27.2766 10.2273 27.2766C10.3665 27.2766 10.5039 27.2461 10.6294 27.1872C10.755 27.1283 10.8654 27.0426 10.9525 26.9365C11.343 26.4547 20.4545 15.2836 20.4545 10.0025C20.4545 7.35071 19.377 4.80753 17.459 2.93243C15.5411 1.05733 12.9397 0.00390625 10.2273 0.00390625ZM10.2273 12.7294C9.49172 12.7294 8.77269 12.5161 8.1611 12.1166C7.54952 11.7171 7.07284 11.1493 6.79136 10.4849C6.50987 9.82055 6.43623 9.0895 6.57972 8.38422C6.72322 7.67893 7.07742 7.03108 7.59754 6.5226C8.11765 6.01412 8.78031 5.66784 9.50173 5.52755C10.2231 5.38726 10.9709 5.45926 11.6505 5.73445C12.33 6.00964 12.9109 6.47565 13.3195 7.07357C13.7282 7.67148 13.9463 8.37443 13.9463 9.09354C13.9463 10.0578 13.5545 10.9826 12.857 11.6645C12.1596 12.3463 11.2136 12.7294 10.2273 12.7294Z" fill="#6D9F5C"/>
</svg>
