<svg width="28" height="28" viewBox="0 0 28 28" fill="none" xmlns="http://www.w3.org/2000/svg">
<g id="arrow right">
<g id="Layer 13">
<path id="Vector" d="M22.9953 14.8279L15.9953 21.8279C15.8865 21.9367 15.7574 22.023 15.6153 22.0818C15.4732 22.1407 15.3208 22.171 15.167 22.171C15.0132 22.171 14.8608 22.1407 14.7187 22.0818C14.5766 22.023 14.4474 21.9367 14.3387 21.8279C14.2299 21.7191 14.1436 21.59 14.0847 21.4479C14.0259 21.3057 13.9956 21.1534 13.9956 20.9996C13.9956 20.8457 14.0259 20.6934 14.0847 20.5513C14.1436 20.4092 14.2299 20.28 14.3387 20.1712L19.3553 15.1662H5.83366C5.52424 15.1662 5.22749 15.0433 5.0087 14.8245C4.78991 14.6057 4.66699 14.309 4.66699 13.9996C4.66699 13.6901 4.78991 13.3934 5.0087 13.1746C5.22749 12.9558 5.52424 12.8329 5.83366 12.8329H19.3553L14.3387 7.8279C14.119 7.60821 13.9956 7.31025 13.9956 6.99957C13.9956 6.68888 14.119 6.39092 14.3387 6.17123C14.5583 5.95154 14.8563 5.82813 15.167 5.82813C15.4777 5.82812 15.7756 5.95154 15.9953 6.17123L22.9953 13.1712C23.1047 13.2797 23.1915 13.4087 23.2507 13.5509C23.3099 13.6931 23.3404 13.8456 23.3404 13.9996C23.3404 14.1536 23.3099 14.3061 23.2507 14.4482C23.1915 14.5904 23.1047 14.7194 22.9953 14.8279Z" fill="#333333"/>
</g>
</g>
</svg>
