<svg width="1920" height="707" viewBox="0 0 1920 707" fill="none" xmlns="http://www.w3.org/2000/svg">
<ellipse opacity="0.5" cx="531.5" cy="319.5" rx="363.5" ry="241.5" fill="#F0F5EE"/>
<g opacity="0.4">
<path d="M561.009 424.715C561.009 424.715 555.612 414.782 566.812 410.553C566.812 410.553 566.002 406.593 570.995 406.056C570.995 406.056 570.86 391.693 586.715 397.465C586.715 397.465 594.002 391.29 595.554 400.217C595.554 400.217 607.091 392.297 614.041 404.11C614.041 404.11 620.046 399.949 624.633 408.137C624.633 408.137 630.031 406.056 632.932 411.627C632.932 411.627 652.364 409.077 652.701 424.715H561.009Z" stroke="white" stroke-width="1.34237" stroke-miterlimit="10"/>
<path d="M568.632 424.716C568.632 424.716 576.054 410.957 560.603 405.05C560.603 405.05 561.683 399.614 554.733 398.808C554.733 398.808 555.003 378.941 533.008 386.928C533.008 386.928 522.888 378.337 520.661 390.754C520.661 390.754 504.671 379.747 495.022 396.191C495.022 396.191 486.724 390.351 480.314 401.762C480.314 401.762 472.892 398.808 468.912 406.527C468.912 406.527 441.923 403.037 441.451 424.716H568.632Z" stroke="white" stroke-width="1.34237" stroke-miterlimit="10"/>
<path d="M324.258 378.068C324.258 378.068 301.723 360.684 299.159 366.12C296.595 371.557 324.258 378.068 324.258 378.068Z" fill="white"/>
<path d="M321.76 371.558C321.76 371.558 319.332 347.261 324.392 347.395C329.452 347.596 321.76 371.558 321.76 371.558Z" fill="white"/>
<path d="M314.946 357.932C314.946 357.932 291.264 344.71 291.466 348.402C291.601 352.16 305.163 358.805 314.946 357.932Z" fill="white"/>
<path d="M308.738 348.401C308.738 348.401 300.035 325.245 306.647 323.433C313.326 321.554 308.738 348.401 308.738 348.401Z" fill="white"/>
<path d="M298.821 335.85C299.226 336.588 276.421 325.984 276.219 318.668C276.016 311.285 293.896 325.782 298.821 335.85Z" fill="white"/>
<path d="M346.185 383.974C346.185 383.974 334.918 366.12 331.477 367.127C328.036 368.201 338.696 380.886 346.185 383.974Z" fill="white"/>
<path d="M345.51 375.585C345.51 375.585 353.741 351.892 358.532 355.65C363.322 359.342 345.51 375.585 345.51 375.585Z" fill="white"/>
<path d="M344.161 363.101C344.431 363.101 333.568 343.301 330.802 346.589C328.036 349.811 338.156 361.892 344.161 363.101Z" fill="white"/>
<path d="M344.16 351.489C344.16 351.489 334.984 327.796 344.16 323.299C353.404 318.802 344.16 351.489 344.16 351.489Z" fill="white"/>
<path d="M365.278 378.605C365.278 378.605 363.322 362.697 360.893 363.1C358.531 363.436 360.623 373.504 365.278 378.605Z" fill="white"/>
<path d="M367.775 371.557C367.775 371.557 384.171 357.462 389.501 360.684C394.831 363.906 367.775 371.557 367.775 371.557Z" fill="white"/>
<path d="M372.769 360.214C372.769 360.214 373.039 340.079 367.776 340.414C362.446 340.75 372.769 360.214 372.769 360.214Z" fill="white"/>
<path d="M379.987 348.402C379.987 348.402 396.855 340.951 400.971 343.972C405.086 347.059 379.987 348.402 379.987 348.402Z" fill="white"/>
<path d="M384.711 342.494C384.711 342.494 385.521 322.694 396.046 321.688C406.639 320.681 400.297 338.064 384.711 342.494Z" fill="white"/>
<path d="M384.575 398.002H313.732C309.481 398.002 306.782 402.432 308.739 406.19L318.59 424.514H379.65L389.501 406.19C391.457 402.432 388.759 398.002 384.575 398.002Z" stroke="white" stroke-width="1.34237" stroke-miterlimit="10"/>
<path d="M308.738 406.19H389.5" stroke="white" stroke-width="1.34237" stroke-miterlimit="10"/>
<path d="M294.772 331.621C294.772 331.621 327.226 362.361 329.25 402.7" stroke="white" stroke-width="1.34237" stroke-miterlimit="10"/>
<path d="M344.16 347.394C344.43 348.535 344.7 380.148 348.546 402.7" stroke="white" stroke-width="1.34237" stroke-miterlimit="10"/>
<path d="M359.679 402.7C360.084 402.7 364.064 361.824 388.286 338.803" stroke="white" stroke-width="1.34237" stroke-miterlimit="10"/>
<path d="M159.832 424.515H920.085" stroke="white" stroke-width="1.34237" stroke-miterlimit="10"/>
<path d="M809.435 337.126H792.837L797.222 203.157C797.965 203.627 798.842 203.963 799.719 203.963H802.215C803.295 203.963 804.239 203.56 804.982 202.889L809.435 337.126Z" stroke="black" stroke-width="1.34237" stroke-miterlimit="10"/>
<path d="M806.398 191.142V199.8C806.398 201.009 805.858 202.15 804.981 202.888C804.239 203.559 803.295 203.962 802.215 203.962H799.719C798.842 203.962 797.964 203.626 797.222 203.156C796.862 202.843 796.548 202.485 796.278 202.083C795.805 201.478 795.603 200.673 795.603 199.8V195.84C796.615 194.632 797.492 193.29 798.302 191.948C799.449 192.35 800.731 192.485 801.945 192.35C802.89 192.216 803.834 191.88 804.644 191.344C805.004 191.12 805.341 190.851 805.656 190.538C805.881 190.717 806.128 190.918 806.398 191.142Z" stroke="black" stroke-width="1.34237" stroke-miterlimit="10"/>
<path fill-rule="evenodd" clip-rule="evenodd" d="M835.613 213.359C834.938 216.379 815.979 199.398 806.398 191.143C806.128 190.919 805.881 190.718 805.656 190.539C805.341 190.852 805.004 191.12 804.644 191.344C803.834 191.881 802.89 192.217 801.945 192.351C800.731 192.485 799.449 192.351 798.302 191.948C797.492 193.29 796.615 194.633 795.603 195.841C794.456 197.116 793.174 198.123 791.757 198.794C791.307 198.973 790.857 199.107 790.408 199.197C790.093 199.286 789.778 199.331 789.463 199.331C788.586 198.928 759.439 205.976 759.979 203.09C757.55 201.076 782.851 191.948 794.321 187.518C794.141 186.758 794.096 185.907 794.186 184.968C794.523 182.887 795.468 181.41 796.817 180.538C794.658 176.712 792.904 172.551 794.591 168.926C795.468 168.389 803.767 139.73 805.993 141.609C806.87 141.743 807.545 142.549 807.41 143.421L802.62 179.598C804.981 180.202 807.073 182.014 807.41 184.901C811.796 185.102 816.316 185.84 818.475 189.263C818.475 190.203 838.446 212.486 835.613 213.359ZM803.902 185.505C803.902 185.415 803.902 185.326 803.902 185.236C803.857 185.102 803.812 184.945 803.767 184.766C803.497 183.961 802.89 183.424 802.147 183.088C801 182.551 799.584 182.753 798.639 183.558C798.459 183.737 798.302 183.939 798.167 184.162C797.942 184.52 797.784 184.945 797.694 185.438C797.649 185.706 797.649 185.952 797.694 186.176C797.694 186.31 797.717 186.422 797.762 186.511C797.762 186.69 797.807 186.869 797.897 187.048C797.897 187.093 797.919 187.138 797.964 187.183C797.964 187.227 797.964 187.25 797.964 187.25C798.009 187.294 798.032 187.339 798.032 187.384C798.077 187.473 798.122 187.541 798.167 187.585C798.212 187.675 798.257 187.742 798.302 187.787C798.347 187.831 798.392 187.876 798.437 187.921C798.437 187.966 798.459 188.01 798.504 188.055C798.594 188.145 798.706 188.234 798.841 188.324C798.931 188.368 799.021 188.436 799.111 188.525C799.201 188.525 799.269 188.547 799.314 188.592C799.359 188.637 799.426 188.659 799.516 188.659C799.561 188.704 799.629 188.726 799.719 188.726C799.764 188.771 799.809 188.793 799.853 188.793C799.853 188.793 799.876 188.793 799.921 188.793C799.966 188.838 800.033 188.861 800.123 188.861C801.068 189.062 802.147 188.861 802.89 188.189C803.362 187.787 803.699 187.25 803.834 186.511C803.879 186.422 803.902 186.332 803.902 186.243C803.947 185.974 803.947 185.728 803.902 185.505Z" stroke="black" stroke-width="1.34237" stroke-miterlimit="10"/>
<path d="M745.943 443.643C745.943 443.643 747.158 428.408 734.743 424.515H780.42C792.767 428.408 791.553 443.643 791.553 443.643H745.943Z" fill="white"/>
<path d="M520.323 443.642C520.323 443.642 521.537 428.407 509.19 424.514H554.8C567.215 428.407 566 443.642 566 443.642H520.323Z" fill="white"/>
</g>
<path d="M621.399 456.252C621.399 456.252 616.811 453.433 613.303 454.977C609.794 456.521 596.3 463.367 592.387 464.239C588.474 465.045 590.835 471.622 602.035 470.213C613.168 468.803 626.662 471.757 628.956 467.662C631.25 463.501 621.399 456.252 621.399 456.252Z" fill="#361F54"/>
<path d="M715.252 457.461C715.252 457.461 719.367 454.843 722.606 456.253C725.845 457.662 738.192 463.971 741.767 464.777C745.343 465.515 743.184 471.556 732.929 470.213C722.741 468.938 710.394 471.623 708.302 467.864C706.211 464.106 715.252 457.461 715.252 457.461Z" fill="#333333"/>
<path d="M674.701 338.324C674.701 338.324 680.841 336.915 682.596 342.15C684.282 347.385 683.675 352.285 667.617 361.48C651.559 370.608 632.128 375.508 625.853 367.923C619.578 360.339 612.562 303.959 612.562 303.959L626.056 303.288C626.056 303.288 637.121 337.653 640.562 351.882C640.562 351.882 661.545 339.465 674.701 338.324Z" fill="#659456"/>
<path d="M675.444 285.636C675.444 285.636 657.227 307.047 677.266 323.626C692.581 336.177 632.87 453.433 720.986 432.358C777.054 419.001 784.88 390.811 769.902 363.695C747.569 323.089 723.01 351.211 720.446 293.556C719.232 265.903 676.186 274.696 675.444 285.636Z" fill="#0B041C"/>
<path d="M668.021 370.878C667.481 370.743 667.481 393.497 663.298 403.162C659.047 412.76 659.992 435.379 659.992 435.379C659.992 435.379 669.1 438.332 677.399 435.379C685.63 432.493 680.84 373.629 668.021 370.878Z" fill="#659456"/>
<path d="M692.851 321.88L691.839 338.996C691.839 338.996 691.839 341.68 695.617 342.888C699.396 344.097 706.143 338.526 706.143 338.526L705.94 313.289L692.851 321.88Z" fill="#FFADBF"/>
<g style="mix-blend-mode:multiply">
<path d="M706.008 323.357L705.94 313.289L692.851 321.88L692.312 330.941C699.598 330.136 703.714 326.847 706.008 323.357Z" fill="#FFADBF"/>
</g>
<path d="M677.94 291.274C677.94 291.274 675.511 297.852 677.198 302.215C678.884 306.577 679.627 323.357 689.612 326.713C689.612 326.713 705.535 325.773 706.952 304.899C708.436 283.958 693.053 281.811 693.053 281.811C693.053 281.811 684.619 279.394 677.94 291.274Z" fill="#FFADBF"/>
<path d="M700.002 273.756C700.002 273.756 660.667 267.112 675.848 298.859C675.848 298.859 687.385 299.261 700.205 296.778C700.205 296.778 700.07 308.994 706.344 309.732C706.344 309.732 706.007 321.813 706.142 326.713C706.142 326.713 713.091 322.484 714.036 313.625C714.036 313.625 725.641 308.054 718.826 287.247C714.306 273.555 700.002 273.756 700.002 273.756Z" fill="#0B041C"/>
<path d="M685.024 305.705C685.024 305.705 685.226 309.665 683.27 312.081C683.27 312.081 684.416 314.162 686.778 313.625" stroke="#361F54" stroke-width="0.671187" stroke-miterlimit="10"/>
<path d="M689.746 301.476C690.016 300.939 690.421 300.536 690.893 300.201C691.365 299.865 691.905 299.664 692.512 299.529C693.12 299.462 693.727 299.462 694.267 299.731C694.806 299.932 695.279 300.335 695.616 300.738C695.144 300.536 694.671 300.268 694.132 300.201C693.592 300.134 693.12 300.134 692.647 300.201C691.635 300.335 690.691 300.872 689.746 301.476Z" fill="#361F54"/>
<path d="M683.203 301.745C682.394 301.409 681.719 301.141 680.977 301.006C680.572 300.939 680.167 300.939 679.83 300.939C679.425 300.939 679.02 301.073 678.615 301.141C678.885 300.805 679.29 300.536 679.695 300.402C680.167 300.268 680.639 300.268 681.044 300.335C681.921 300.469 682.731 301.006 683.203 301.745Z" fill="#361F54"/>
<path d="M692.581 304.631C692.581 305.436 692.311 306.107 691.906 306.107C691.501 306.107 691.164 305.436 691.164 304.631C691.164 303.825 691.501 303.154 691.906 303.154C692.311 303.154 692.581 303.825 692.581 304.631Z" fill="#361F54"/>
<path d="M682.122 305.704C682.122 306.51 681.785 307.181 681.38 307.181C680.975 307.181 680.705 306.51 680.705 305.704C680.705 304.899 680.975 304.295 681.38 304.295C681.785 304.295 682.122 304.899 682.122 305.704Z" fill="#361F54"/>
<path d="M664.243 426.317C664.243 426.317 633.139 408.195 621.939 411.484C610.739 414.773 625.582 459.541 660.667 452.158C695.751 444.708 709.987 429.337 709.987 429.337L664.243 426.317Z" fill="#333333"/>
<path d="M678.682 338.257C678.682 338.257 719.906 334.633 726.248 343.09C732.59 351.547 717.747 384.099 717.949 390.878C718.219 397.657 722.605 424.908 722.605 424.908C722.605 424.908 690.624 433.834 664.243 426.317C664.243 426.317 666.2 407.121 668.899 392.825C671.597 378.462 668.629 375.106 668.629 375.106C668.629 375.106 659.655 363.494 670.113 350.809C670.113 350.809 672.744 346.177 673.352 343.09C674.364 337.452 678.682 338.257 678.682 338.257Z" fill="#C4DEC4"/>
<path d="M709.649 337.452C709.649 337.452 700.271 358.057 700.068 377.723C699.866 397.456 702.565 429.74 704.859 437.526C704.859 437.526 719.095 439.069 729.08 435.915C729.08 435.915 729.688 420.008 723.818 410.275C718.825 402.02 720.984 383.428 720.984 383.428C720.984 383.428 731.374 354.903 729.418 346.446C729.418 346.446 730.295 337.317 709.649 337.452Z" fill="#659456"/>
<path d="M680.301 338.123C680.301 338.123 675.848 348.46 670.113 350.809C670.113 350.809 672.205 347.587 671.665 343.09C671.193 338.526 675.511 336.915 680.301 338.123Z" fill="#659456"/>
<path d="M709.044 337.855C701.758 337.318 693.729 337.452 687.724 337.72C686.982 341.143 686.105 347.184 687.724 350.808C687.724 350.808 703.647 348.593 709.044 337.855Z" fill="#FFADBF"/>
<path d="M703.781 303.96C703.781 303.96 708.099 297.046 710.663 300C713.227 302.886 712.013 313.222 703.781 315.37V303.96Z" fill="#FFADBF"/>
<path d="M716.263 345.909C716.263 345.909 717.95 339.868 723.415 340.875C728.812 341.949 732.861 344.835 733.198 363.226C733.603 381.616 725.169 410.947 715.453 412.759C705.738 414.639 652.706 393.63 652.706 393.63L658.576 381.415C658.576 381.415 694.2 388.395 708.436 392.221C708.436 392.221 710.933 357.923 716.263 345.909Z" fill="#659456"/>
<path d="M722.875 406.115C720.581 409.806 718.085 412.29 715.453 412.759C705.738 414.639 652.706 393.631 652.706 393.631L658.576 381.415C658.576 381.415 694.2 388.395 708.436 392.221C708.436 392.221 710.933 357.923 716.263 345.909" stroke="#659456" stroke-width="1.34237" stroke-miterlimit="10"/>
<path d="M684.552 316.108C684.552 316.108 688.6 316.444 690.826 315.84C690.826 315.84 690.017 318.994 687.655 318.793C685.361 318.592 684.552 316.108 684.552 316.108Z" fill="white"/>
<path d="M659.589 390.878C659.859 390.61 662.491 382.757 658.375 381.28C654.192 379.803 648.929 380.273 644.543 377.79C641.17 375.843 630.577 386.045 630.577 386.045C630.577 386.045 631.319 392.153 637.189 391.482C649.469 389.938 650.953 399.469 659.589 390.878Z" fill="#FFADBF"/>
<path d="M701.015 294.966C701.015 294.966 698.923 324.632 701.015 331.613C703.174 338.526 706.884 339.935 705.737 345.103C704.59 350.272 701.487 356.245 706.952 356.849C712.484 357.52 721.998 351.815 719.434 345.238C716.938 338.66 707.289 325.169 706.75 320.001C706.277 314.766 707.087 298.255 707.087 298.255L701.015 294.966Z" fill="#0B041C"/>
<path d="M615.732 307.114C615.732 307.114 620.59 309.866 624.638 305.436C628.754 301.006 630.643 295.57 633.544 293.892C636.445 292.214 638.672 290.335 638.672 290.335C638.672 290.335 633.949 285.368 629.158 292.013L625.852 293.221C625.852 293.221 623.693 275.904 618.296 273.756C618.296 273.756 611.954 272.078 617.621 282.012C617.621 282.012 610.739 273.421 609.795 277.246C608.85 281.005 612.696 284.629 612.696 284.629C612.696 284.629 605.072 278.924 605.139 282.75C605.274 286.576 608.648 289.395 608.648 289.395C608.648 289.395 608.31 302.147 615.732 307.114Z" fill="#FFADBF"/>
<path d="M607.703 423.498C607.635 421.148 615.462 405.51 627.336 411.483C639.211 417.457 697.1 450.815 718.421 457.191C718.421 457.191 716.262 467.326 703.78 468.669C691.366 470.011 608.715 469.34 607.703 423.498Z" fill="#333333"/>
<path d="M741.429 425.378C741.429 425.378 742.307 413.498 731.309 411.551C720.244 409.672 674.162 439.003 619.444 451.822C619.444 451.822 615.058 461.219 625.246 468.669C635.434 476.052 747.907 459.944 741.429 425.378Z" fill="#333333"/>
<path d="M582.334 395.442H659.318C662.759 395.442 665.592 398.194 665.592 401.684C665.592 405.107 662.759 407.926 659.318 407.926H582.334C578.893 407.926 576.06 405.107 576.06 401.684C576.06 398.194 578.893 395.442 582.334 395.442Z" fill="#49A078"/>
<path d="M596.503 416.854H645.149L649.602 407.927H592.05L596.503 416.854Z" fill="#0B533A"/>
<path d="M612.089 454.641H629.564V416.854H612.089V454.641Z" fill="#0B533A"/>
<path d="M601.901 454.642H639.752C649.13 454.642 656.754 462.226 656.754 471.623H584.898C584.898 462.226 592.523 454.642 601.901 454.642Z" fill="#49A078"/>
<path d="M578.286 356.312H623.356L650.209 395.443H597.312L574.912 362.756C573.023 360.004 574.98 356.312 578.286 356.312Z" fill="white"/>
<path d="M619.982 362.756L642.383 395.443H650.209L623.356 356.312C620.05 356.312 618.093 360.004 619.982 362.756Z" fill="#361F54"/>
<path d="M602.711 383.227H624.773C626.73 383.227 627.809 385.509 626.527 387.052L619.511 395.442H592.455L602.711 383.227Z" fill="#361F54"/>
<path d="M587.799 395.442H614.854L625.042 383.227H597.987L587.799 395.442Z" fill="#AED4FF"/>
<path d="M595.83 398.597H585.439C583.753 398.597 582.403 400.006 582.403 401.684C582.403 403.362 583.753 404.704 585.439 404.704H595.83C597.517 404.704 598.866 403.362 598.866 401.684C598.866 400.006 597.517 398.597 595.83 398.597Z" fill="white"/>
<path d="M587.464 401.684C587.464 402.623 586.722 403.362 585.778 403.362C584.833 403.362 584.091 402.623 584.091 401.684C584.091 400.744 584.833 400.006 585.778 400.006C586.722 400.006 587.464 400.744 587.464 401.684Z" fill="#361F54"/>
<path d="M592.322 401.684C592.322 402.623 591.58 403.362 590.635 403.362C589.69 403.362 588.948 402.623 588.948 401.684C588.948 400.744 589.69 400.006 590.635 400.006C591.58 400.006 592.322 400.744 592.322 401.684Z" fill="#361F54"/>
<path d="M597.179 401.684C597.179 402.623 596.437 403.362 595.492 403.362C594.548 403.362 593.806 402.623 593.806 401.684C593.806 400.744 594.548 400.006 595.492 400.006C596.437 400.006 597.179 400.744 597.179 401.684Z" fill="#361F54"/>
<path d="M613.978 287.65L612.696 284.63" stroke="#361F54" stroke-width="1.34237" stroke-miterlimit="10"/>
<path d="M618.161 284.629L616.744 280.334" stroke="#361F54" stroke-width="1.34237" stroke-miterlimit="10"/>
<path d="M619.24 296.375C619.24 296.375 622.614 294.496 625.852 293.221" stroke="#361F54" stroke-width="1.34237" stroke-miterlimit="10"/>
<g style="mix-blend-mode:multiply">
<path d="M425.264 327.721C425.264 327.721 421.418 330.741 423.172 344.031H466.691L425.264 327.721Z" fill="#361F54"/>
</g>
<path d="M425.263 296.376C425.263 296.376 413.254 308.793 425.263 327.72C425.263 327.72 436.126 340.003 456.907 344.03L513.514 343.426L425.263 296.376Z" fill="#333333"/>
<g style="mix-blend-mode:multiply">
<path d="M450.768 255.635L499.886 291.879L513.515 289.194C513.515 289.194 524.108 272.414 513.515 255.635H450.768Z" fill="#361F54"/>
</g>
<path d="M425.264 267.85C425.264 267.85 420.541 261.273 425.264 255.635H461.293C461.293 255.635 480.792 257.648 490.913 274.092C501.033 290.469 513.515 289.194 513.515 289.194C513.515 289.194 520.397 298.792 513.515 311.947C513.515 311.947 482.749 317.585 463.924 302.484C445.1 287.382 425.264 267.85 425.264 267.85Z" fill="#333333"/>
<g style="mix-blend-mode:multiply">
<path d="M425.263 267.851C425.263 267.851 452.656 275.838 460.55 285.973C468.444 296.175 485.582 311.612 513.514 311.948C513.514 311.948 522.96 327.653 513.514 343.426C513.514 343.426 471.75 340.473 449.62 316.377C436.328 301.947 425.263 296.376 425.263 296.376C425.263 296.376 413.254 279.999 425.263 267.851Z" fill="#333333"/>
</g>
<path d="M609.931 142.607C609.931 219.726 547.116 282.214 469.593 282.214C392.07 282.214 329.255 219.726 329.255 142.607C329.255 65.4875 392.07 3 469.593 3C547.116 3 609.931 65.4875 609.931 142.607Z" stroke="white" stroke-width="4.02712" stroke-miterlimit="10"/>
<path d="M589.958 143.546C589.958 209.256 536.387 262.548 470.333 262.548C404.28 262.548 350.709 209.256 350.709 143.546C350.709 77.8373 404.28 24.545 470.333 24.545C536.387 24.545 589.958 77.8373 589.958 143.546Z" fill="#99C18A"/>
<mask id="mask0_1_33" style="mask-type:luminance" maskUnits="userSpaceOnUse" x="351" y="25" width="238" height="239">
<path d="M588.26 144C588.26 209.723 535.154 263 469.642 263C404.131 263 351.024 209.723 351.024 144C351.024 78.2777 404.131 25.0002 469.642 25.0002C535.154 25.0002 588.26 78.2777 588.26 144Z" fill="white"/>
</mask>
<g mask="url(#mask0_1_33)">
<path d="M476.068 188.784C490.507 190.865 479.172 181.67 477.148 187.643C479.779 188.315 470.536 187.576 476.068 188.784Z" fill="#C9E1C9"/>
<path fill-rule="evenodd" clip-rule="evenodd" d="M492.395 297.248C482.882 304.765 484.906 322.82 486.593 325.706C471.682 327.25 487.2 316.444 476.742 323.29C464.8 300.067 496.578 262.145 464.125 231.74C469.928 191.737 468.916 215.565 442.805 194.221C361.233 149.251 396.925 127.303 387.682 129.921C385.455 127.572 383.229 126.297 382.014 125.491C385.455 126.297 388.356 127.706 390.111 128.713C389.031 127.908 387.547 126.767 385.455 125.021C374.727 116.967 375.132 109.718 371.286 112.135C367.036 98.9123 345.175 97.3685 324.327 114.081C317.513 116.229 332.963 110.054 331.142 106.295C321.493 106.295 310.698 97.1672 321.628 94.7509C328.51 89.113 304.828 86.0255 323.787 85.8241C300.983 46.2241 461.494 108.51 438.217 61.5272C447.19 61.1244 442.535 83.2736 452.655 80.8573C487.2 68.4404 412.376 105.691 451.036 111.463C484.839 142.607 454.949 91.2607 475.19 96.0262C543.807 137.237 467.701 122.135 491.316 128.579C487.065 141.398 503.933 131.129 496.848 136.096C477.214 140.392 470.265 146.231 463.248 170.595C470.737 182.005 435.518 152.876 434.843 174.824C434.573 174.689 434.303 174.555 434.101 174.555C436.935 205.363 449.687 176.434 452.79 183.012C447.865 195.429 467.094 211.739 475.932 200.53C497.86 196.906 519.99 224.693 540.366 228.988C540.434 265.098 493.61 285.435 492.395 297.248ZM467.499 140.66C473.369 138.781 470.063 139.251 468.376 139.116C462.304 140.459 465.542 140.794 467.499 140.66ZM453.937 137.64C458.998 138.177 466.622 141.197 460.279 134.888C442.197 134.888 455.152 150.728 453.937 137.64ZM458.39 143.546C461.696 146.298 465.34 142.002 465.745 141.734C462.506 142.204 458.93 142.808 458.39 143.546ZM449.822 132.069C459.267 138.378 454.747 128.377 450.226 128.713C442.265 133.68 444.694 134.015 449.822 132.069ZM434.303 122.202C438.284 130.458 433.696 115.021 433.899 117.773C429.581 118.779 434.236 122.202 434.303 122.202ZM434.303 122.202C434.348 122.202 434.348 122.202 434.303 122.202V122.202ZM409.407 97.7713C419.123 94.0797 400.299 95.4892 402.93 98.9794C400.096 100.926 408.53 99.5163 409.407 97.7713ZM392.539 84.616C380.597 87.7706 399.894 83.0723 390.515 88.4417C399.354 89.5156 400.433 83.475 392.539 84.616ZM482.14 239.056C482.747 239.123 482.747 239.123 482.882 239.19C482.657 239.101 482.41 239.056 482.14 239.056ZM504.81 216.907C504.9 216.952 504.967 216.974 505.012 216.974C504.81 216.907 504.877 216.907 504.81 216.907Z" fill="#C9E1C9"/>
<path d="M474.179 185.026C475.258 181.334 452.453 180.797 459.605 180.596C464.53 180.462 460.617 183.885 474.179 185.026Z" fill="#C9E1C9"/>
<path d="M467.095 188.383C467.432 188.92 470.266 189.658 470.603 188.987C470.873 188.316 466.69 187.711 467.095 188.383Z" fill="#C9E1C9"/>
<path d="M486.594 188.517C487.268 189.591 489.225 188.919 489.427 188.517C489.697 187.778 485.919 187.443 486.594 188.517Z" fill="#C9E1C9"/>
<path d="M444.829 219.995C444.02 221.136 445.571 222.21 445.841 221.74C446.246 221.136 445.571 218.854 444.829 219.995Z" fill="#C9E1C9"/>
<path d="M564.454 73.9447C562.767 71.864 559.933 43.4728 581.726 33.6063C564.184 30.049 535.711 40.1168 562.16 28.0355C565.196 17.0951 437.273 42.5331 491.316 53.8091C539.827 64.0111 474.314 133.412 564.454 73.9447Z" fill="#C9E1C9"/>
<path d="M512.906 75.7566C509.803 76.4949 510.545 77.1661 512.906 75.7566C504.27 73.3403 513.648 73.4746 512.906 75.7566Z" fill="#C9E1C9"/>
<path d="M406.776 48.3045C407.181 47.432 404.28 47.5662 404.55 47.8347C405.022 48.573 406.439 49.2442 406.776 48.3045Z" fill="#C9E1C9"/>
<path d="M413.118 47.9695C416.694 47.8352 405.022 45.9559 409.947 50.1173C411.836 50.2515 409.88 50.1173 413.118 47.9695Z" fill="#C9E1C9"/>
<path d="M422.024 44.1437C422.834 46.3586 426.882 49.0433 430.863 45.6203C430.323 44.345 419.595 39.6467 422.024 44.1437Z" fill="#C9E1C9"/>
<path d="M402.862 53.7416C395.441 55.9565 412.106 65.4874 418.043 55.2853C410.284 48.5063 422.091 56.8962 402.862 53.7416Z" fill="#C9E1C9"/>
<path d="M422.564 50.5198C423.171 49.7815 420.135 47.3652 420 48.4391C419.865 49.5801 421.957 51.3252 422.564 50.5198Z" fill="#C9E1C9"/>
<path d="M409.339 46.493C407.315 46.3588 407.922 46.8286 409.339 46.493C414.265 47.3656 415.479 43.0029 409.339 46.493Z" fill="#C9E1C9"/>
<path d="M390.987 54.1449C394.023 55.4202 399.084 55.1517 402.457 50.9903C405.021 49.4466 400.636 47.5001 390.987 54.1449Z" fill="#C9E1C9"/>
<path d="M445.707 33.0694C481.669 39.2443 432.618 48.0368 460.011 52.8023C458.391 54.2118 538.478 10.3161 445.707 33.0694Z" fill="#C9E1C9"/>
<path d="M477.821 71.3272C465.407 62.4675 459.334 65.4207 449.146 64.0784C432.144 75.3543 506.159 75.2872 467.836 90.5231C481.599 96.4967 511.759 86.3618 477.821 71.3272Z" fill="#C9E1C9"/>
<path d="M472.424 82.1337C472.491 82.6706 474.38 79.3147 470.467 79.3147C470.197 79.3147 466.621 84.1472 472.424 82.1337Z" fill="#C9E1C9"/>
<path d="M388.222 68.6428C387.884 72.5357 402.863 67.7031 401.446 61.394C397.802 59.1791 382.757 59.2462 388.222 68.6428Z" fill="#C9E1C9"/>
<path d="M373.512 117.37C375.267 117.572 375.267 118.444 373.512 117.37C370.341 115.29 378.1 124.418 373.512 117.37Z" fill="#A3EB91"/>
<path d="M397.331 56.2253C398.68 56.4267 400.03 55.2185 399.962 54.4802C399.895 53.809 396.656 56.1582 397.331 56.2253Z" fill="#C9E1C9"/>
<path d="M423.845 57.7689C424.385 57.1648 422.698 55.8895 422.294 56.8963C421.821 57.9702 423.306 58.3729 423.845 57.7689Z" fill="#C9E1C9"/>
<path d="M506.296 123.546C505.621 121.196 495.163 135.291 505.554 130.996C518.036 135.627 505.149 129.318 506.296 123.546Z" fill="#C9E1C9"/>
<path d="M431.2 69.9846C432.752 74.4815 439.364 59.6483 431.875 61.729C431.47 64.2795 421.282 63.0713 431.2 69.9846Z" fill="#C9E1C9"/>
<path d="M440.916 59.3794C442.265 59.3122 440.916 59.3794 440.106 56.5604C439.634 55.6207 431.065 59.178 440.916 59.3794Z" fill="#C9E1C9"/>
<path d="M426.14 74.8171C427.085 71.1927 418.516 58.8429 397.87 67.9039C400.906 63.6754 389.774 84.6165 426.14 74.8171Z" fill="#C9E1C9"/>
<path d="M464.8 98.1743C465.34 98.1072 466.419 96.2278 465.07 96.295C463.653 96.3621 463.99 98.3085 464.8 98.1743Z" fill="#C9E1C9"/>
<path d="M463.586 92.4023C462.371 91.5297 453.938 82.6029 453.465 90.4558C451.913 93.946 451.644 93.3419 463.586 92.4023Z" fill="#C9E1C9"/>
<path d="M458.121 96.5636C459.335 97.3019 461.157 95.2884 461.022 94.6843C460.887 94.0803 456.704 95.624 458.121 96.5636Z" fill="#C9E1C9"/>
<path d="M435.586 48.0366C435.519 47.6339 439.23 48.7078 438.825 46.2244C439.364 46.4929 429.042 41.3247 435.586 48.0366Z" fill="#C9E1C9"/>
<path d="M432.414 40.6538C432.954 39.7142 429.243 38.9758 430.188 39.7813C430.66 40.2511 431.875 41.5264 432.414 40.6538Z" fill="#C9E1C9"/>
<path d="M432.414 52.4661C436.058 54.8153 416.019 50.117 425.802 55.9563C425.735 55.6207 440.241 62.601 432.414 52.4661Z" fill="#C9E1C9"/>
<path d="M436.53 40.5196C436.193 38.5732 444.896 54.8159 453.735 41.7277C452.183 41.6606 441.388 27.4315 436.53 40.5196Z" fill="#C9E1C9"/>
<path d="M462.911 62.5334C465.205 62.869 466.352 62.6677 462.911 62.5334C459.065 64.9497 477.957 67.1646 462.911 62.5334Z" fill="#C9E1C9"/>
<path d="M441.793 48.3718C441.591 47.9691 435.856 48.6403 436.733 49.3115C438.285 50.4525 441.928 48.8417 441.793 48.3718Z" fill="#C9E1C9"/>
<path d="M447.461 48.977C446.111 48.3058 444.357 49.7824 445.774 50.2523C446.988 50.7221 448.81 49.6482 447.461 48.977Z" fill="#C9E1C9"/>
<path d="M443.616 57.9027C446.854 62.4668 486.527 56.8959 447.866 55.3522C445.505 52.1976 431.471 47.1637 443.616 57.9027Z" fill="#C9E1C9"/>
<path d="M491.383 126.7C491.518 127.304 495.903 129.116 496.105 128.311C496.24 127.505 491.248 126.23 491.383 126.7Z" fill="#C9E1C9"/>
<path d="M576.329 91.0599C584.561 83.9454 566.681 86.2274 561.823 86.1603C564.252 87.8382 560.811 96.5637 576.329 91.0599Z" fill="#C9E1C9"/>
<path d="M586.382 122.807C589.688 124.149 596.705 114.082 589.62 114.551C587.866 114.887 582.941 118.914 586.382 122.807Z" fill="#C9E1C9"/>
<path d="M467.904 176.167C468.039 177.173 468.107 177.442 467.904 176.167C466.285 174.891 469.186 180.529 467.904 176.167Z" fill="#C9E1C9"/>
<path d="M495.904 202.88C495.837 202.074 496.242 202.208 495.904 202.88C496.174 203.819 498.873 200.866 495.904 202.88Z" fill="#C9E1C9"/>
</g>
<path d="M275.479 450.883C275.479 450.883 283.575 462.361 296.597 463.703C309.618 465.045 306.785 470.885 306.785 470.885L252.809 470.549L254.023 450.749L275.479 450.883Z" fill="#333333"/>
<path d="M339.846 450.011C339.846 450.011 348.954 463.233 361.976 464.508C374.998 465.784 372.164 471.623 372.164 471.623H320.347L319.335 451.823L339.846 450.011Z" fill="#333333"/>
<path d="M369.398 95.4898C369.398 95.4898 363.663 90.523 364.473 87.0999C365.215 83.6769 370.005 90.523 371.355 88.7108C372.097 87.704 374.256 80.7908 377.562 77.7033C379.923 75.4213 383.499 76.2267 384.579 77.5691C387.143 80.7237 380.328 97.7047 380.328 97.7047L369.398 95.4898Z" fill="#FFADBF"/>
<path d="M339.239 161.467C356.039 159.252 358.198 159.588 374.863 149.05C386.805 141.466 380.935 96.1609 380.935 96.1609C374.053 91.8653 368.723 95.0199 368.723 95.0199C366.227 116.632 359.817 135.358 359.817 135.358C359.817 135.358 353.745 136.768 342.612 136.768C342.612 136.768 310.294 138.11 307.73 147.238C305.234 156.366 312.993 164.89 339.239 161.467Z" fill="#659456"/>
<path d="M331.412 208.249C331.412 208.249 346.188 444.104 341.87 450.413C337.552 456.789 312.453 456.923 312.183 452.896C311.913 448.802 304.357 274.696 299.161 245.499C293.966 216.303 317.783 204.557 331.412 208.249Z" fill="#333333"/>
<path d="M321.629 212.343C321.629 212.343 326.082 235.23 315.692 243.486C305.369 251.808 284.588 444.909 283.981 451.755C283.306 458.534 259.489 460.145 252.81 455.648C246.13 451.151 264.887 260.064 274.873 213.752C274.873 213.752 313.331 206.503 321.629 212.343Z" fill="#333333"/>
<path d="M322.438 226.773C322.033 233.015 320.414 239.794 315.691 243.486C312.317 246.238 307.797 268.991 303.209 298.523" stroke="#E0BFFF" stroke-width="1.34237" stroke-miterlimit="10"/>
<path d="M276.695 141.734C276.897 141.399 298.42 137.573 316.502 140.593C316.502 140.593 323.181 157.574 326.083 167.508C329.051 177.374 331.413 208.249 331.413 208.249C331.413 208.249 310.362 216.37 289.716 211.068C289.716 211.068 283.846 194.758 281.957 181.938C280.001 169.119 269.678 155.561 276.695 141.734Z" fill="#C4DEC4"/>
<path d="M282.969 139.452C282.969 139.452 287.085 137.573 289.109 140.996C291.133 144.419 301.119 148.312 302.873 151.601C304.627 154.957 304.762 163.078 304.762 168.112C304.762 173.213 298.96 215.364 298.825 223.082C298.825 223.082 279.056 226.035 271.499 220.532C271.499 220.532 271.297 216.303 272.174 212.88C272.174 212.88 271.297 210.867 270.285 203.215C269.273 195.631 274.603 190.194 272.309 182.408C270.015 174.69 259.625 139.318 282.969 139.452Z" fill="#659456"/>
<path d="M310.024 139.788C310.362 139.788 316.367 140.862 315.624 147.843C314.882 154.823 316.367 172.744 318.323 176.167C320.212 179.59 322.439 221.271 322.439 221.271C322.439 221.271 326.555 222.881 334.584 219.928C334.584 219.928 334.111 213.418 334.111 212.881C334.111 212.277 338.699 208.182 336.675 199.323C334.651 190.463 333.571 176.167 330.063 169.925C325.475 161.938 321.562 142.54 317.109 139.788C312.656 137.037 310.024 139.788 310.024 139.788Z" fill="#659456"/>
<path d="M299.161 186.436C299.161 186.436 299.161 199.389 291.739 207.511L290.592 206.101C290.592 206.101 295.922 198.987 297.946 186.436H299.161Z" fill="#624186"/>
<path d="M293.157 124.686C293.157 124.686 293.359 132.942 290.458 140.996C290.458 140.996 297.34 147.977 307.73 143.211L310.429 127.036L293.157 124.686Z" fill="#FFADBF"/>
<g style="mix-blend-mode:multiply">
<path d="M292.886 129.72C293.223 126.7 293.156 124.619 293.156 124.619L310.428 127.036L308.336 139.721C301.994 138.58 296.259 133.412 292.886 129.72Z" fill="#FFADBF"/>
</g>
<path d="M301.656 89.6504C301.656 89.6504 318.726 88.1737 320.278 102.537C321.762 116.833 322.1 132.204 310.427 132.808C298.688 133.412 290.456 125.425 288.567 118.243C286.678 111.061 284.451 91.4626 301.656 89.6504Z" fill="#FFADBF"/>
<path d="M311.44 100.524C311.44 100.524 304.019 96.1609 299.296 97.7047C294.573 99.3155 290.93 106.699 293.291 110.591C295.652 114.484 292.549 122.069 292.549 122.069H290.12L293.156 126.096L292.616 132.204C292.616 132.204 287.151 123.612 284.857 118.377C282.563 113.075 280.269 103.41 281.686 94.6172C283.036 86.026 319.807 80.6565 318.93 97.7047C318.93 97.7047 316.028 95.1541 311.44 100.524Z" fill="#361F54"/>
<path d="M314.883 111.33C314.815 111.934 315.018 112.337 315.288 112.807C315.558 113.209 315.872 113.612 316.232 114.015C316.907 114.776 317.627 115.536 318.391 116.297L318.999 117.035L318.256 117.304C317.784 117.505 317.582 117.505 317.244 117.505C316.93 117.55 316.637 117.55 316.367 117.505C315.76 117.505 315.22 117.371 314.68 117.237C315.22 116.968 315.76 116.834 316.232 116.632C316.502 116.588 316.772 116.521 317.042 116.431C317.244 116.364 317.582 116.23 317.582 116.23L317.447 117.237C316.637 116.431 315.895 115.626 315.288 114.686C314.95 114.216 314.681 113.679 314.546 113.075C314.411 112.471 314.478 111.8 314.883 111.33Z" fill="#361F54"/>
<path d="M292.279 118.243C292.279 118.243 290.052 110.86 284.25 112.135C278.515 113.343 282.765 127.036 293.291 124.418L292.279 118.243Z" fill="#FFADBF"/>
<path d="M303.209 108.98C304.154 108.309 305.166 108.175 306.178 108.175C307.19 108.175 308.202 108.376 309.146 108.98C308.067 109.383 307.122 109.45 306.178 109.517C305.166 109.45 304.221 109.383 303.209 108.98Z" fill="#361F54"/>
<path d="M316.03 108.309C316.165 107.973 316.3 107.57 316.638 107.302C316.907 107.033 317.245 106.832 317.65 106.698C318.392 106.496 319.336 106.631 319.809 107.369C318.999 107.704 318.527 107.839 317.987 107.973C317.717 108.04 317.447 108.174 317.11 108.241C316.84 108.241 316.503 108.376 316.03 108.309Z" fill="#361F54"/>
<path d="M306.851 113.075C306.986 113.88 306.716 114.619 306.244 114.686C305.772 114.753 305.3 114.149 305.165 113.343C305.03 112.538 305.3 111.867 305.772 111.733C306.244 111.665 306.716 112.269 306.851 113.075Z" fill="#361F54"/>
<path d="M319.605 111.732C319.74 112.538 319.47 113.209 318.998 113.276C318.526 113.41 318.053 112.806 317.919 112.001C317.784 111.195 318.053 110.457 318.526 110.39C318.998 110.323 319.47 110.927 319.605 111.732Z" fill="#361F54"/>
<path d="M317.108 122.069C317.108 122.069 312.385 123.076 310.496 122.673C310.496 122.673 310.833 125.627 313.802 125.761C316.703 125.895 317.108 122.069 317.108 122.069Z" fill="white"/>
<path d="M285.531 227.848C285.531 227.848 293.088 226.908 295.112 229.727C297.136 232.546 288.837 231.606 289.377 233.754C289.849 235.902 294.707 251.205 290.591 251.004C288.837 250.936 283.507 250.869 281.146 247.379C278.109 242.815 276.558 234.559 276.558 234.559L285.531 227.848Z" fill="#FFADBF"/>
<path d="M255.711 161.736C246.265 175.696 244.578 177.106 241.542 196.503C239.383 210.464 277.368 236.036 277.368 236.036C285.195 233.754 286.274 227.646 286.274 227.646C271.701 211.471 261.783 194.355 261.783 194.355C261.783 194.355 264.751 188.852 272.106 180.596C272.106 180.596 292.482 155.561 287.219 147.641C282.024 139.721 270.486 139.855 255.711 161.736Z" fill="#659456"/>
<path d="M324.057 146.635C324.057 146.635 327.767 155.293 328.307 163.012" stroke="#361F54" stroke-width="1.34237" stroke-miterlimit="10"/>
<path d="M274.872 177.039C275.209 176.637 283.913 164.756 287.084 156.232" stroke="#361F54" stroke-width="1.34237" stroke-miterlimit="10"/>
<path d="M425.264 424.17C425.264 424.17 421.418 427.19 423.172 440.48H466.691L425.264 424.17Z" fill="#361F54"/>
<g style="mix-blend-mode:multiply">
<path d="M425.264 424.17C425.264 424.17 421.418 427.19 423.172 440.48H466.691L425.264 424.17Z" fill="#361F54"/>
</g>
<path d="M425.263 392.825C425.263 392.825 413.254 405.242 425.263 424.17C425.263 424.17 436.126 436.452 456.907 440.479L513.514 439.875L425.263 392.825Z" fill="#333333"/>
<path d="M450.768 352.084L499.886 388.328L513.515 385.71C513.515 385.71 524.108 368.931 513.515 352.084H450.768Z" fill="#361F54"/>
<g style="mix-blend-mode:multiply">
<path d="M450.768 352.084L499.886 388.328L513.515 385.71C513.515 385.71 524.108 368.931 513.515 352.084H450.768Z" fill="#361F54"/>
</g>
<path d="M425.264 364.3C425.264 364.3 420.541 357.722 425.264 352.084H461.293C461.293 352.084 480.792 354.098 490.913 370.542C501.033 386.919 513.515 385.71 513.515 385.71C513.515 385.71 520.397 395.241 513.515 408.397C513.515 408.397 482.749 414.035 463.924 398.933C445.1 383.898 425.264 364.3 425.264 364.3Z" fill="#333333"/>
<path d="M425.263 364.3C425.263 364.3 452.656 372.287 460.55 382.489C468.444 392.624 485.582 408.128 513.514 408.397C513.514 408.397 522.96 424.103 513.514 439.875C513.514 439.875 471.75 436.989 449.62 412.894C436.328 398.396 425.263 392.825 425.263 392.825C425.263 392.825 413.254 376.515 425.263 364.3Z" fill="#361F54"/>
<g style="mix-blend-mode:multiply">
<path d="M425.263 364.3C425.263 364.3 452.656 372.287 460.55 382.489C468.444 392.624 485.582 408.128 513.514 408.397C513.514 408.397 522.96 424.103 513.514 439.875C513.514 439.875 471.75 436.989 449.62 412.894C436.328 398.396 425.263 392.825 425.263 392.825C425.263 392.825 413.254 376.515 425.263 364.3Z" fill="#361F54"/>
</g>
<path d="M435.72 346.312C435.72 346.312 400.973 349.266 402.457 376.315C402.457 376.315 414.872 366.851 435.72 368.73C435.72 368.73 426.679 377.657 443.142 392.826C443.142 392.826 462.033 381.617 461.899 370.878C461.899 370.878 465.137 377.12 477.079 383.228C489.021 389.268 490.303 393.698 490.303 393.698C490.303 393.698 500.154 379.939 493.272 367.723C493.272 367.723 511.152 365.173 527.412 375.845C527.412 375.845 528.626 348.863 512.434 345.306C496.241 341.748 435.72 346.312 435.72 346.312Z" fill="#65DE47"/>
<g style="mix-blend-mode:multiply">
<path d="M435.72 346.312C435.72 346.312 400.973 349.266 402.457 376.315C402.457 376.315 414.872 366.851 435.72 368.73C435.72 368.73 426.679 377.657 443.142 392.826C443.142 392.826 462.033 381.617 461.899 370.878C461.899 370.878 465.137 377.12 477.079 383.228C489.021 389.268 490.303 393.698 490.303 393.698C490.303 393.698 500.154 379.939 493.272 367.723C493.272 367.723 511.152 365.173 527.412 375.845C527.412 375.845 528.626 348.863 512.434 345.306C496.241 341.748 435.72 346.312 435.72 346.312Z" fill="#659456"/>
</g>
<path d="M407.315 432.291L412.713 455.783C414.94 465.381 423.508 472.16 433.426 472.16H507.576C517.494 472.16 526.063 465.381 528.289 455.783L533.687 432.291H407.315Z" fill="#49A078"/>
<g style="mix-blend-mode:multiply">
<path d="M529.1 452.226L531.259 442.829H409.745L411.904 452.226H529.1Z" fill="#26847B"/>
</g>
<path d="M460.55 357.253C460.55 357.253 411.431 262.951 323.315 293.222C323.315 293.222 356.983 311.277 370.207 332.822C381.137 350.608 408.53 376.784 460.55 357.253Z" fill="#659456"/>
<g style="mix-blend-mode:multiply">
<path d="M436.126 356.715L433.562 352.957C432.685 351.749 431.741 350.607 430.863 349.399L429.514 347.587L428.03 345.842C427.085 344.701 426.141 343.56 425.129 342.419C421.08 337.989 416.695 333.828 412.107 329.935C402.863 322.216 392.608 315.706 381.745 310.538C370.883 305.37 359.413 301.41 347.673 299.262C353.43 300.828 359.053 302.752 364.54 305.034C370.073 307.226 375.493 309.687 380.801 312.417C385.996 315.169 391.191 318.189 396.116 321.411C401.042 324.7 405.832 328.19 410.353 332.016C414.873 335.774 419.191 339.869 423.172 344.164C427.153 348.527 430.931 353.091 434.304 357.923C435.519 359.669 436.711 361.458 437.88 363.293C438.555 363.203 439.23 363.092 439.904 362.957C438.69 360.877 437.476 358.729 436.126 356.715Z" fill="#65DE47"/>
</g>
<path d="M473.708 344.299C473.708 344.299 527.752 261.072 600.889 304.766C600.889 304.766 579.366 310.672 564.995 329.197C550.624 347.789 522.826 382.624 473.708 344.299Z" fill="#659456"/>
<path d="M440.648 358.125C440.108 359.333 437.544 364.031 427.896 363.427C418.315 362.823 393.891 325.438 414.267 297.986C414.267 297.986 418.99 317.585 427.626 323.693C436.33 329.733 449.217 339.935 440.648 358.125Z" fill="#659456"/>
<g style="mix-blend-mode:multiply">
<path d="M413.997 310.269C413.457 307.383 413.12 304.43 413.052 301.477C412.917 302.953 412.917 304.43 412.985 305.906C413.075 307.383 413.187 308.882 413.322 310.403C413.727 313.357 414.312 316.287 415.076 319.196C415.886 322.082 416.898 324.901 418.045 327.653C419.192 330.472 420.609 333.089 422.161 335.707C422.566 336.311 422.97 336.982 423.375 337.586L424.657 339.466C425.129 340.07 425.602 340.607 426.006 341.211C426.231 341.524 426.479 341.837 426.749 342.15L427.423 343.023C429.38 345.305 431.472 347.453 433.698 349.533C434.845 350.473 435.925 351.48 437.139 352.42C437.746 352.889 438.286 353.359 438.893 353.762L440.782 355.037L441.66 355.708H441.727C441.772 355.529 441.839 355.328 441.929 355.104C439.276 353.135 436.757 351.01 434.373 348.728C432.281 346.647 430.257 344.567 428.435 342.218L427.693 341.345C427.468 341.077 427.243 340.786 427.019 340.472C426.614 339.868 426.141 339.331 425.737 338.727L424.522 336.848C424.05 336.244 423.712 335.64 423.308 334.969C420.204 330.002 417.843 324.565 416.088 318.927C415.211 316.108 414.469 313.222 413.997 310.269Z" fill="#65DE47"/>
</g>
<g style="mix-blend-mode:multiply">
<path d="M582.267 304.161C569.92 305.571 557.842 308.792 546.238 313.155C534.633 317.652 523.433 323.357 513.245 330.472C511.963 331.344 510.681 332.284 509.466 333.224C508.252 334.163 506.97 335.103 505.756 336.11L502.18 339.063L498.739 342.217C497.524 343.224 496.445 344.365 495.365 345.439C494.286 346.58 493.139 347.654 492.127 348.862L489.023 352.285C488.618 352.777 488.236 353.247 487.876 353.695C488.551 354.097 489.225 354.455 489.9 354.769C493.206 351.01 496.782 347.52 500.493 344.097L503.934 341.076L507.442 338.19C508.657 337.184 509.871 336.311 511.086 335.438C512.3 334.499 513.515 333.559 514.797 332.754C519.789 329.196 525.052 326.042 530.45 323.089C535.847 320.135 541.38 317.585 547.047 315.169C552.715 312.797 558.472 310.694 564.32 308.859C570.189 306.913 576.194 305.369 582.267 304.161Z" fill="#65DE47"/>
</g>
<path d="M449.082 362.958C446.383 362.555 435.385 360.273 430.797 340.741C426.142 321.21 486.798 249.863 554.335 274.025C554.335 274.025 517.699 295.302 510.682 316.176C503.665 337.184 490.913 368.931 449.082 362.958Z" fill="#659456"/>
<g style="mix-blend-mode:multiply">
<path d="M518.845 302.618C515.134 307.048 512.233 311.612 510.681 316.176C503.665 337.184 490.913 368.931 449.081 362.958C446.382 362.555 435.385 360.273 430.797 340.742C429.852 336.782 431.606 330.741 435.52 323.761" stroke="#65DE47" stroke-width="1.34237" stroke-miterlimit="10"/>
</g>
<g style="mix-blend-mode:multiply">
<path d="M529.37 280.871C534.97 278.052 540.705 275.569 546.643 273.689C543.539 274.361 540.57 275.233 537.602 276.24C534.633 277.269 531.709 278.41 528.83 279.663C523.028 282.146 517.495 285.1 512.165 288.456C506.768 291.744 501.64 295.436 496.782 299.463C491.924 303.49 487.471 307.92 483.221 312.551C482.209 313.759 481.062 314.9 480.117 316.108L477.148 319.8C476.204 321.008 475.259 322.35 474.315 323.559C473.842 324.23 473.37 324.834 472.898 325.505L471.616 327.452C468.107 332.687 465.004 338.191 462.305 343.828C461.023 346.647 459.606 349.466 458.527 352.42C457.987 353.896 457.38 355.373 456.84 356.85L455.355 361.279L454.613 363.494V363.561C455.063 363.561 455.49 363.584 455.895 363.629C458.324 357.185 461.09 350.876 464.194 344.768C467.163 339.332 470.199 333.962 473.775 328.928L475.124 326.982C475.529 326.378 476.001 325.774 476.474 325.169C477.418 323.894 478.295 322.686 479.24 321.411L482.209 317.854C483.153 316.645 484.233 315.572 485.245 314.363C493.476 305.168 502.989 297.114 513.312 290.201C518.44 286.778 523.838 283.623 529.37 280.871Z" fill="#65DE47"/>
</g>
<path d="M486.391 362.958C485.447 362.891 481.601 362.219 479.712 355.508C477.89 348.796 497.929 323.291 521.611 330.741C521.611 330.741 509.196 338.594 507.105 345.977C504.946 353.293 500.965 364.501 486.391 362.958Z" fill="#659456"/>
<g style="mix-blend-mode:multiply">
<path d="M513.109 333.493C514.998 332.419 516.955 331.479 518.979 330.741C517.9 331.01 516.888 331.345 515.876 331.748C514.841 332.151 513.851 332.576 512.907 333.023C510.928 334.008 509.039 335.104 507.239 336.312C505.418 337.52 503.663 338.862 502.044 340.339C500.425 341.816 498.941 343.359 497.524 345.037C497.186 345.507 496.849 345.91 496.512 346.313L495.5 347.655C495.185 348.102 494.892 348.55 494.622 348.997C494.443 349.221 494.285 349.445 494.15 349.669L493.678 350.407C492.531 352.219 491.586 354.166 490.709 356.179C490.304 357.186 489.832 358.193 489.495 359.199C489.36 359.736 489.157 360.206 488.955 360.743L488.55 362.287L488.28 363.092C488.46 363.092 488.618 363.092 488.753 363.092C489.517 360.855 490.394 358.64 491.384 356.448C492.328 354.568 493.273 352.622 494.487 350.877L494.892 350.138C495.027 349.915 495.185 349.713 495.365 349.534C495.679 349.087 495.972 348.639 496.242 348.192L497.254 346.917C497.591 346.447 497.928 346.111 498.266 345.641C500.965 342.353 504.136 339.467 507.644 336.916C509.398 335.641 511.22 334.5 513.109 333.493Z" fill="#65DE47"/>
</g>
<path d="M556.763 170.26C556.088 170.26 555.414 170.126 554.739 169.857C551.703 168.716 550.083 165.36 551.23 162.273C551.365 161.937 564.59 124.955 549.476 95.8251C545.361 87.9051 539.491 80.8577 532.002 74.817C529.438 72.8034 529.033 69.1119 531.124 66.5614C533.149 64.0109 536.927 63.6081 539.423 65.6888C548.194 72.6692 555.144 80.9919 560.002 90.4556C577.544 124.216 562.97 164.689 562.363 166.367C561.486 168.783 559.192 170.26 556.763 170.26Z" stroke="white" stroke-width="1.34237" stroke-miterlimit="10"/>
<path d="M520.733 66.4942C519.856 66.4942 518.911 66.2929 518.034 65.8231C508.319 60.8563 500.492 59.0441 500.425 59.0441C497.254 58.3729 495.229 55.2183 495.904 51.9966C496.646 48.842 499.75 46.8285 502.988 47.5668C503.326 47.6339 512.299 49.5803 523.499 55.3525C526.401 56.8291 527.548 60.3864 525.996 63.2725C524.984 65.3532 522.892 66.4942 520.733 66.4942Z" stroke="white" stroke-width="1.34237" stroke-miterlimit="10"/>
<path d="M452.926 461.756H442.535C440.848 461.756 439.499 463.098 439.499 464.776C439.499 466.454 440.848 467.864 442.535 467.864H452.926C454.612 467.864 455.962 466.454 455.962 464.776C455.962 463.098 454.612 461.756 452.926 461.756Z" fill="white"/>
<path d="M444.56 464.776C444.56 465.715 443.818 466.454 442.873 466.454C441.929 466.454 441.187 465.715 441.187 464.776C441.187 463.836 441.929 463.098 442.873 463.098C443.818 463.098 444.56 463.836 444.56 464.776Z" fill="#361F54"/>
<path d="M449.417 464.776C449.417 465.715 448.675 466.454 447.731 466.454C446.786 466.454 446.044 465.715 446.044 464.776C446.044 463.836 446.786 463.098 447.731 463.098C448.675 463.098 449.417 463.836 449.417 464.776Z" fill="#361F54"/>
<path d="M454.342 464.776C454.342 465.715 453.533 466.454 452.588 466.454C451.711 466.454 450.901 465.715 450.901 464.776C450.901 463.836 451.711 463.098 452.588 463.098C453.533 463.098 454.342 463.836 454.342 464.776Z" fill="#361F54"/>
<path d="M384.578 77.5684C384.578 77.5684 381.407 84.4816 381.137 84.8843C380.935 85.2199 380.125 88.8443 380.125 88.8443" stroke="#361F54" stroke-width="1.34237" stroke-miterlimit="10"/>
<path d="M381.408 76.2939L378.979 80.9923L376.888 86.9658" stroke="#361F54" stroke-width="1.34237" stroke-miterlimit="10"/>
<path d="M595.492 401.685L597.043 492.899C597.043 497.396 593.4 501.02 588.947 501.02H462.306C457.853 501.02 454.209 497.396 454.209 492.899L452.59 464.776" stroke="#216869" stroke-width="1.34237" stroke-miterlimit="10"/>
<path d="M792.505 462.628V500.349C792.505 506.86 787.175 512.162 780.63 512.162H596.774C590.23 512.162 584.899 506.86 584.899 500.349V401.685" stroke="#216869" stroke-width="1.34237" stroke-miterlimit="10"/>
<path d="M817.062 342.755C817.062 342.755 834.807 352.487 846.277 345.909L841.284 342.889C841.284 342.889 851.202 342.62 858.489 335.976C865.843 329.264 868.272 324.901 868.272 324.901L858.759 321.612C858.759 321.612 867.935 318.391 874.884 308.054C874.884 308.054 872.388 304.161 857.139 302.551L860.58 295.369C860.58 295.369 855.925 287.919 837.168 295.772C809.708 307.182 817.062 342.755 817.062 342.755Z" fill="#659456"/>
<path d="M825.9 320.538C825.9 320.538 820.368 328.928 805.929 326.445C791.558 323.962 779.751 317.988 779.751 317.988L786.228 306.511C786.228 306.511 759.172 301.544 753.303 285.704C747.365 269.864 745.881 262.615 745.881 262.615L756.069 266.374C756.069 266.374 749.659 252.145 755.529 236.036C761.399 219.928 761.399 219.928 761.399 219.928L769.226 227.445L775.568 208.719C775.568 208.719 785.014 213.283 789.736 218.317C794.459 223.283 798.305 231.405 798.305 231.405L796.753 217.511C796.753 217.511 811.934 224.894 814.093 234.694C816.252 244.493 818.816 255.5 818.816 255.5L823.876 238.855C823.876 238.855 831.973 254.225 834.672 263.42C837.438 272.683 837.573 290.067 837.573 290.067C837.573 290.067 832.58 311.813 825.9 320.538Z" fill="#65DE47"/>
<g style="mix-blend-mode:multiply">
<path d="M825.9 320.538C825.9 320.538 820.368 328.928 805.929 326.445C791.558 323.962 779.751 317.988 779.751 317.988L786.228 306.511C786.228 306.511 759.172 301.544 753.303 285.704C747.365 269.864 745.881 262.615 745.881 262.615L756.069 266.374C756.069 266.374 749.659 252.145 755.529 236.036C761.399 219.928 761.399 219.928 761.399 219.928L769.226 227.445L775.568 208.719C775.568 208.719 785.014 213.283 789.736 218.317C794.459 223.283 798.305 231.405 798.305 231.405L796.753 217.511C796.753 217.511 811.934 224.894 814.093 234.694C816.252 244.493 818.816 255.5 818.816 255.5L823.876 238.855C823.876 238.855 831.973 254.225 834.672 263.42C837.438 272.683 837.573 290.067 837.573 290.067C837.573 290.067 832.58 311.813 825.9 320.538Z" fill="#659456"/>
</g>
<path d="M795.269 281.006C795.269 281.006 805.929 291.007 810.315 302.148C814.768 313.29 799.722 435.782 799.722 435.782H834.267C834.267 435.782 820.098 317.451 828.33 293.96C836.628 270.468 848.098 268.455 848.098 268.455C848.098 268.455 849.853 263.891 843.51 264.428C843.51 264.428 829.881 269.596 821.785 289.262C821.785 289.262 819.356 293.356 814.768 291.007C810.18 288.658 809.168 283.959 798.845 276.845C798.845 276.845 794.392 277.65 795.269 281.006Z" fill="#0B041C"/>
<path d="M858.826 428.264H777.93C773.477 428.264 770.373 432.627 771.79 436.788L783.26 470.012H854.643L865.033 436.587C866.315 432.493 863.212 428.264 858.826 428.264Z" fill="#49A078"/>
<g style="mix-blend-mode:multiply">
<path d="M779.279 458.534H858.219L861.862 446.654H775.23L779.279 458.534Z" fill="#26847B"/>
</g>
<path d="M795.202 330.942C795.202 330.942 808.966 345.709 810.248 349.333C811.598 352.957 808.022 366.784 808.022 366.784C808.022 366.784 803.299 344.97 795.202 338.057C795.202 338.057 790.075 332.687 795.202 330.942Z" fill="#0B041C"/>
<path d="M791.761 460.145C790.344 460.145 789.265 461.286 789.265 462.629C789.265 463.971 790.344 465.112 791.761 465.112C793.11 465.112 794.19 463.971 794.19 462.629C794.19 461.286 793.11 460.145 791.761 460.145Z" fill="#361F54"/>
<path d="M799.115 460.145C797.766 460.145 796.686 461.286 796.686 462.629C796.686 463.971 797.766 465.112 799.115 465.112C800.532 465.112 801.611 463.971 801.611 462.629C801.611 461.286 800.532 460.145 799.115 460.145Z" fill="#361F54"/>
<path d="M832.446 284.898C832.446 284.898 825.699 282.751 824.755 272.549C823.81 262.414 825.699 253.353 825.699 253.353L834.673 255.568C834.673 255.568 833.054 236.439 842.769 229.593C852.485 222.679 857.14 220.33 857.14 220.33L856.466 227.915C856.466 227.915 864.967 220.934 877.044 221.941C889.054 222.948 889.054 222.948 889.054 222.948L885.41 229.593L899.309 230.465C899.309 230.465 897.96 237.647 895.396 241.741C892.832 245.903 888.042 249.93 888.042 249.93L897.218 246.372C897.218 246.372 894.991 257.917 888.716 261.138C882.442 264.427 875.425 268.186 875.425 268.186L887.704 268.521C887.704 268.521 878.663 276.777 872.928 280.334C867.126 283.892 855.319 287.181 855.319 287.181C855.319 287.181 839.598 287.852 832.446 284.898Z" fill="#659456"/>
<path d="M803.502 286.778C803.502 286.778 801.14 291.007 794.056 290.403C786.972 289.731 781.034 287.315 781.034 287.315L783.733 281.543C783.733 281.543 770.441 280.201 767 272.75C763.492 265.3 762.48 261.81 762.48 261.81L767.54 263.22C767.54 263.22 763.897 256.642 766.123 248.588C768.35 240.601 768.35 240.601 768.35 240.601L772.398 243.889L774.76 234.627C774.76 234.627 779.482 236.439 781.979 238.721C784.475 240.936 786.634 244.695 786.634 244.695L785.352 238.05C785.352 238.05 792.976 241.003 794.393 245.702C795.81 250.333 797.497 255.568 797.497 255.568L799.319 247.312C799.319 247.312 803.772 254.427 805.458 258.79C807.145 263.152 807.955 271.542 807.955 271.542C807.955 271.542 806.403 282.281 803.502 286.778Z" fill="#7EAE6E"/>
<path d="M760.118 335.842C760.118 335.842 766.527 343.56 775.231 345.909C783.867 348.326 787.241 348.863 787.241 348.863L782.922 352.084C782.922 352.084 793.987 355.709 799.115 354.769C804.243 353.829 813.959 345.305 815.443 337.184C816.86 328.995 812.474 309.128 804.243 307.987C796.012 306.779 796.012 306.779 796.012 306.779L799.115 312.954C799.115 312.954 784.339 303.96 778.537 304.631C772.734 305.37 766.392 305.705 766.392 305.705L771.452 309.732C771.452 309.732 759.578 310.001 752.831 313.692L757.689 320.203L745.544 318.793C745.544 318.793 754.045 330.405 760.118 335.842Z" fill="#659456"/>
<path d="M828.195 280.468C827.588 280.535 824.957 280.535 823 276.307C820.976 272.145 831.299 253.017 847.829 255.232C847.829 255.232 840.475 261.809 839.935 266.91C839.395 272.011 838.046 279.864 828.195 280.468Z" fill="#7EAE6E"/>
<g style="mix-blend-mode:multiply">
<path d="M842.5 257.983C843.58 257.044 844.749 256.216 846.009 255.5C845.379 255.813 844.749 256.149 844.12 256.507C843.49 256.909 842.883 257.312 842.298 257.715C841.083 258.565 839.959 259.505 838.924 260.534C837.845 261.518 836.855 262.592 835.956 263.756C835.078 264.897 834.269 266.105 833.527 267.38C833.324 267.716 833.122 268.051 832.987 268.387L832.515 269.326C832.335 269.64 832.177 269.975 832.042 270.333C831.952 270.512 831.885 270.669 831.84 270.803L831.638 271.34C831.098 272.682 830.625 274.092 830.288 275.501C830.153 276.24 829.951 276.911 829.883 277.649C829.793 278.007 829.726 278.365 829.681 278.723L829.546 279.797V280.334C829.636 280.334 829.726 280.334 829.816 280.334C830.041 278.723 830.356 277.157 830.76 275.636C831.165 274.226 831.637 272.884 832.177 271.541L832.38 271.072C832.47 270.893 832.537 270.736 832.582 270.602C832.762 270.244 832.919 269.908 833.054 269.595L833.527 268.655C833.729 268.32 833.932 268.051 834.066 267.716C835.483 265.232 837.238 262.95 839.262 260.869C840.251 259.84 841.331 258.878 842.5 257.983Z" fill="#65DE47"/>
</g>
<path d="M830.759 284.428C830.355 284.093 828.735 282.549 830.017 278.79C831.299 274.965 849.111 269.26 858.017 280.468C858.017 280.468 849.516 280.2 846.143 283.019C842.702 285.838 837.169 289.865 830.759 284.428Z" fill="#7EAE6E"/>
<g style="mix-blend-mode:multiply">
<path d="M853.092 278.992C854.307 279.081 855.521 279.283 856.736 279.596C856.151 279.372 855.544 279.193 854.914 279.059C854.329 278.925 853.722 278.813 853.092 278.723C851.833 278.544 850.573 278.455 849.314 278.455C848.054 278.455 846.817 278.544 845.603 278.723C844.344 278.902 843.107 279.171 841.892 279.529C841.555 279.596 841.285 279.663 840.948 279.797L840.07 280.066C839.801 280.2 839.508 280.312 839.193 280.401C839.058 280.491 838.923 280.558 838.789 280.603L838.316 280.804C837.169 281.341 836.09 281.945 835.01 282.616C834.47 282.952 833.931 283.287 833.458 283.69C833.188 283.869 832.941 284.048 832.716 284.227L831.974 284.831L831.637 285.1C831.682 285.189 831.749 285.256 831.839 285.301C832.919 284.451 834.043 283.668 835.213 282.952C836.292 282.348 837.372 281.744 838.519 281.274L838.991 281.073C839.126 281.028 839.261 280.983 839.396 280.938C839.666 280.804 839.958 280.692 840.273 280.603L841.15 280.267C841.42 280.2 841.757 280.133 842.027 279.999C844.389 279.327 846.885 278.992 849.314 278.858C850.573 278.813 851.833 278.858 853.092 278.992Z" fill="#65DE47"/>
</g>
<path d="M799.924 328.123C800.531 328.19 803.163 328.19 805.187 323.962C807.211 319.733 796.888 300.605 780.358 302.819C780.358 302.819 787.645 309.464 788.252 314.498C788.792 319.599 790.141 327.452 799.924 328.123Z" fill="#7EAE6E"/>
<g style="mix-blend-mode:multiply">
<path d="M785.687 305.571C784.563 304.676 783.371 303.87 782.111 303.154C782.786 303.423 783.438 303.758 784.068 304.161C784.698 304.519 785.305 304.922 785.89 305.369C787.059 306.219 788.184 307.137 789.263 308.121C790.298 309.15 791.265 310.246 792.164 311.41C793.109 312.551 793.919 313.759 794.661 315.034C794.796 315.37 794.998 315.638 795.133 315.974L795.673 316.981C795.808 317.294 795.965 317.63 796.145 317.988C796.19 318.122 796.258 318.278 796.348 318.457L796.55 318.994C797.09 320.337 797.494 321.746 797.832 323.156C798.034 323.827 798.169 324.565 798.304 325.303C798.349 325.661 798.394 326.019 798.439 326.377L798.574 327.451L798.642 327.988C798.552 327.988 798.462 327.966 798.372 327.921C798.102 326.355 797.764 324.811 797.36 323.29C796.955 321.88 796.55 320.538 796.01 319.196L795.808 318.726C795.718 318.547 795.628 318.368 795.538 318.189C795.403 317.876 795.268 317.562 795.133 317.249L794.593 316.31C794.458 315.974 794.256 315.638 794.054 315.37C792.637 312.819 790.882 310.537 788.858 308.524C787.869 307.495 786.812 306.51 785.687 305.571Z" fill="#65DE47"/>
</g>
<path d="M791.221 333.291C791.693 333.022 793.447 331.68 792.705 327.854C791.963 323.961 775.298 316.108 765.177 325.84C765.177 325.84 773.476 326.713 776.377 329.868C779.346 333.089 784.204 337.72 791.221 333.291Z" fill="#7EAE6E"/>
<g style="mix-blend-mode:multiply">
<path d="M770.17 325.035C768.956 324.99 767.741 325.035 766.527 325.169C767.112 325.035 767.719 324.945 768.349 324.901C768.933 324.856 769.54 324.834 770.17 324.834C771.43 324.789 772.667 324.856 773.881 325.035C775.095 325.214 776.31 325.46 777.524 325.773C778.739 326.087 779.908 326.512 781.033 327.049C781.303 327.116 781.573 327.25 781.843 327.384L782.72 327.854C782.99 327.988 783.259 328.122 783.529 328.257C783.664 328.346 783.799 328.436 783.934 328.525L784.339 328.726C785.351 329.398 786.363 330.136 787.308 330.941C787.78 331.344 788.252 331.747 788.657 332.15C788.882 332.373 789.107 332.597 789.332 332.821L790.006 333.492L790.276 333.828C790.231 333.872 790.164 333.917 790.074 333.962C789.129 332.977 788.117 332.082 787.038 331.277C786.093 330.539 785.081 329.8 784.069 329.196L783.664 328.928C783.529 328.883 783.394 328.816 783.259 328.726C782.99 328.592 782.72 328.436 782.45 328.257L781.64 327.854C781.37 327.72 781.1 327.653 780.83 327.518C778.604 326.512 776.243 325.84 773.814 325.438C772.599 325.259 771.385 325.124 770.17 325.035Z" fill="#65DE47"/>
</g>
<path d="M810.854 340.271C811.326 340.003 813.081 338.66 812.338 334.835C811.596 330.942 794.931 323.089 784.743 332.821C784.743 332.821 793.042 333.693 796.011 336.848C798.979 340.07 803.837 344.701 810.854 340.271Z" fill="#7EAE6E"/>
<g style="mix-blend-mode:multiply">
<path d="M789.803 332.016C788.588 331.971 787.351 332.016 786.092 332.15C786.722 332.016 787.351 331.926 787.981 331.881C788.566 331.837 789.173 331.814 789.803 331.814C791.017 331.769 792.254 331.837 793.514 332.016C794.728 332.195 795.942 332.441 797.157 332.754C798.326 333.067 799.496 333.492 800.665 334.029C800.935 334.096 801.205 334.23 801.475 334.365L802.352 334.835C802.622 334.969 802.892 335.103 803.162 335.237C803.297 335.327 803.432 335.416 803.566 335.506L803.904 335.707C804.983 336.378 805.995 337.117 806.94 337.922C807.412 338.325 807.885 338.727 808.289 339.13C808.514 339.354 808.739 339.578 808.964 339.801L809.571 340.472L809.909 340.808C809.819 340.853 809.751 340.898 809.706 340.942C808.717 340.003 807.705 339.108 806.67 338.258C805.726 337.519 804.714 336.781 803.634 336.177L803.297 335.908C803.162 335.864 803.027 335.797 802.892 335.707C802.622 335.573 802.352 335.439 802.082 335.304L801.273 334.902C801.003 334.7 800.733 334.633 800.395 334.499C798.236 333.492 795.875 332.821 793.446 332.418C792.232 332.239 791.017 332.105 789.803 332.016Z" fill="#65DE47"/>
</g>
<path d="M790.614 286.778C791.086 286.443 792.84 285.168 792.098 281.275C791.288 277.449 774.691 269.529 764.503 279.328C764.503 279.328 772.802 280.201 775.77 283.355C778.739 286.51 783.597 291.208 790.614 286.778Z" fill="#7EAE6E"/>
<g style="mix-blend-mode:multiply">
<path d="M769.562 278.522C768.348 278.478 767.111 278.522 765.852 278.657C766.481 278.522 767.088 278.433 767.673 278.388C768.303 278.299 768.933 278.254 769.562 278.254C770.777 278.254 772.014 278.343 773.273 278.522C774.488 278.657 775.702 278.903 776.917 279.261C778.086 279.574 779.256 279.977 780.425 280.469C780.695 280.603 780.965 280.737 781.235 280.872L782.044 281.274C782.314 281.453 782.584 281.61 782.854 281.744C782.989 281.834 783.124 281.901 783.259 281.945L783.664 282.214C784.743 282.885 785.755 283.623 786.7 284.362C787.172 284.832 787.644 285.167 788.049 285.637C788.274 285.861 788.499 286.084 788.724 286.308L789.331 286.979L789.668 287.315C789.578 287.36 789.511 287.404 789.466 287.449C788.477 286.465 787.464 285.547 786.43 284.697C785.418 283.959 784.473 283.288 783.394 282.684L783.056 282.415C782.921 282.326 782.786 282.259 782.652 282.214C782.382 282.035 782.112 281.878 781.842 281.744L781.032 281.341C780.762 281.207 780.425 281.073 780.155 281.006C777.929 279.999 775.567 279.328 773.206 278.925C771.991 278.701 770.777 278.567 769.562 278.522Z" fill="#65DE47"/>
</g>
<path d="M786.094 268.387C786.634 268.253 788.725 267.649 789.265 263.689C789.805 259.796 776.58 246.976 763.829 253.017C763.829 253.017 771.385 256.507 773.207 260.4C774.961 264.427 778.065 270.401 786.094 268.387Z" fill="#7EAE6E"/>
<g style="mix-blend-mode:multiply">
<path d="M768.821 253.889C767.697 253.442 766.527 253.084 765.313 252.815C765.943 252.86 766.55 252.972 767.135 253.151C767.719 253.285 768.304 253.442 768.889 253.621C770.103 254.024 771.25 254.493 772.33 255.03C773.454 255.567 774.534 256.194 775.568 256.91C776.603 257.581 777.57 258.342 778.47 259.192C778.672 259.393 778.942 259.594 779.144 259.863L779.819 260.467C779.999 260.691 780.201 260.937 780.426 261.205C780.516 261.295 780.629 261.407 780.764 261.541L781.034 261.877C781.843 262.816 782.518 263.89 783.193 264.897C783.462 265.434 783.8 265.971 784.07 266.508C784.205 266.776 784.34 267.067 784.475 267.38L784.879 268.186L785.014 268.588V268.655C784.969 268.655 784.902 268.655 784.812 268.655C784.227 267.447 783.552 266.284 782.788 265.165C782.113 264.091 781.438 263.152 780.629 262.212L780.359 261.877C780.224 261.742 780.111 261.63 780.022 261.541C779.842 261.317 779.639 261.093 779.414 260.87L778.807 260.199C778.537 259.997 778.335 259.796 778.132 259.594C776.311 257.916 774.286 256.574 772.195 255.433C771.115 254.851 769.991 254.337 768.821 253.889Z" fill="#65DE47"/>
</g>
<path d="M796.822 277.18C796.552 277.381 795.27 278.321 792.841 276.979C790.412 275.636 788.591 262.884 797.294 258.186C797.294 258.186 796.147 263.891 797.632 266.508C799.183 269.193 801.275 273.421 796.822 277.18Z" fill="#7EAE6E"/>
<g style="mix-blend-mode:multiply">
<path d="M795.743 261.34C795.968 260.535 796.237 259.729 796.552 258.924C796.372 259.326 796.192 259.729 796.013 260.132C795.833 260.49 795.675 260.893 795.54 261.34C795.27 262.145 795.068 262.973 794.933 263.823C794.798 264.674 794.708 265.546 794.663 266.441C794.618 267.291 794.641 268.141 794.731 268.992C794.776 269.215 794.821 269.439 794.866 269.663L794.933 270.267C794.978 270.491 795.023 270.714 795.068 270.938C795.113 271.028 795.135 271.139 795.135 271.274L795.203 271.542C795.428 272.392 795.72 273.22 796.08 274.025C796.215 274.428 796.417 274.831 796.62 275.234C796.71 275.413 796.8 275.592 796.89 275.771L797.227 276.375L797.429 276.643C797.474 276.598 797.497 276.554 797.497 276.509C797.092 275.659 796.71 274.786 796.35 273.891C796.08 273.153 795.743 272.28 795.608 271.475L795.473 271.139C795.473 271.05 795.45 270.96 795.405 270.871C795.405 270.647 795.383 270.446 795.338 270.267L795.203 269.596C795.158 269.372 795.135 269.171 795.135 268.992C794.933 267.246 795.001 265.569 795.203 263.891C795.338 263.04 795.518 262.19 795.743 261.34Z" fill="#65DE47"/>
</g>
<path d="M854.171 251.943C853.766 251.876 852.282 251.607 851.54 248.923C850.798 246.305 858.827 236.17 868.272 239.19C868.272 239.19 863.347 242.278 862.47 245.231C861.593 248.117 859.974 252.547 854.171 251.943Z" fill="#7EAE6E"/>
<g style="mix-blend-mode:multiply">
<path d="M864.899 240.264C865.619 239.817 866.383 239.459 867.193 239.19C866.788 239.28 866.383 239.414 865.979 239.593C865.574 239.727 865.169 239.884 864.764 240.063C864 240.466 863.257 240.891 862.538 241.338C861.818 241.83 861.121 242.367 860.446 242.949C859.816 243.531 859.209 244.157 858.624 244.828C858.489 245.007 858.354 245.164 858.22 245.298L857.815 245.835C857.725 246.014 857.612 246.193 857.477 246.372C857.432 246.462 857.365 246.551 857.275 246.641L857.14 246.909C856.69 247.67 856.285 248.453 855.926 249.258C855.723 249.661 855.588 249.996 855.453 250.466C855.363 250.645 855.296 250.847 855.251 251.07L855.048 251.674L854.914 252.01C855.004 252.01 855.071 252.01 855.116 252.01C855.431 251.115 855.791 250.22 856.195 249.325C856.533 248.587 856.938 247.849 857.41 247.11L857.612 246.842C857.657 246.752 857.702 246.663 857.747 246.573C857.882 246.394 858.017 246.215 858.152 246.036L858.557 245.567C858.692 245.388 858.827 245.231 858.962 245.097C860.041 243.754 861.323 242.613 862.673 241.607C863.392 241.114 864.134 240.667 864.899 240.264Z" fill="#65DE47"/>
</g>
<path d="M860.175 266.91C859.837 266.843 858.421 266.239 858.218 263.487C858.083 260.735 868.136 252.48 876.705 257.447C876.705 257.447 871.172 259.46 869.688 262.145C868.271 264.762 865.707 268.79 860.175 266.91Z" fill="#7EAE6E"/>
<g style="mix-blend-mode:multiply">
<path d="M873.129 257.782C873.984 257.514 874.838 257.335 875.693 257.245C875.243 257.245 874.793 257.29 874.344 257.379C873.939 257.424 873.511 257.491 873.062 257.581C872.252 257.805 871.442 258.073 870.633 258.386C869.823 258.699 869.036 259.08 868.271 259.527C867.507 259.93 866.764 260.4 866.045 260.937C865.91 261.071 865.752 261.205 865.572 261.339L865.1 261.742C864.92 261.921 864.74 262.078 864.56 262.212C864.515 262.301 864.448 262.369 864.358 262.413L864.156 262.682C863.526 263.308 862.964 263.979 862.469 264.695C862.199 265.031 861.929 265.367 861.727 265.769C861.592 265.948 861.479 266.127 861.389 266.306L861.052 266.843L860.917 267.179C860.962 267.179 861.029 267.179 861.119 267.179C861.569 266.373 862.087 265.59 862.671 264.83C863.211 264.158 863.751 263.554 864.358 262.95L864.628 262.682C864.673 262.637 864.74 262.57 864.83 262.48C865.01 262.346 865.168 262.212 865.303 262.078L865.775 261.608C865.955 261.474 866.135 261.339 866.315 261.205C867.664 260.198 869.148 259.326 870.7 258.655C871.51 258.297 872.32 258.006 873.129 257.782Z" fill="#65DE47"/>
</g>
<path d="M823.877 345.104C823.539 345.104 821.987 344.903 821.043 342.285C820.166 339.668 827.452 329.063 837.101 331.345C837.101 331.345 832.378 334.835 831.703 337.788C831.028 340.809 829.746 345.305 823.877 345.104Z" fill="#7EAE6E"/>
<g style="mix-blend-mode:multiply">
<path d="M833.727 332.688C834.446 332.195 835.211 331.77 836.021 331.412C835.616 331.591 835.211 331.77 834.806 331.949C834.401 332.128 834.019 332.33 833.659 332.553C832.894 332.956 832.175 333.426 831.5 333.963C830.825 334.5 830.173 335.081 829.543 335.708C828.959 336.334 828.396 337.006 827.857 337.721C827.722 337.856 827.609 338.012 827.519 338.191L827.114 338.795C827.024 338.974 826.912 339.153 826.777 339.332C826.732 339.422 826.687 339.511 826.642 339.601L826.507 339.869C826.102 340.675 825.743 341.48 825.428 342.286C825.293 342.688 825.158 343.091 825.023 343.494C824.978 343.717 824.933 343.941 824.888 344.165L824.753 344.769L824.686 345.105C824.731 345.105 824.775 345.105 824.82 345.105C825.09 344.165 825.383 343.248 825.698 342.353C826.035 341.614 826.372 340.809 826.777 340.071L826.98 339.802C827.025 339.713 827.069 339.623 827.114 339.534C827.204 339.355 827.317 339.176 827.452 338.997L827.789 338.46C827.924 338.281 828.059 338.102 828.194 337.923C829.139 336.513 830.353 335.305 831.702 334.164C832.332 333.627 833.007 333.135 833.727 332.688Z" fill="#65DE47"/>
</g>
<path d="M820.098 270.267C820.436 270.334 821.988 270.334 823.27 267.918C824.551 265.434 818.816 253.89 808.966 254.83C808.966 254.83 813.149 258.924 813.419 261.944C813.621 265.032 814.296 269.663 820.098 270.267Z" fill="#7EAE6E"/>
<g style="mix-blend-mode:multiply">
<path d="M812.069 256.574C811.394 256.037 810.697 255.545 809.977 255.098C810.382 255.277 810.764 255.478 811.124 255.702C811.484 255.925 811.844 256.172 812.204 256.44C812.878 256.977 813.508 257.559 814.093 258.185C814.723 258.812 815.285 259.483 815.78 260.199C816.319 260.87 816.792 261.586 817.196 262.346C817.286 262.57 817.376 262.772 817.466 262.951L817.736 263.555C817.826 263.734 817.916 263.935 818.006 264.159C818.051 264.248 818.096 264.338 818.141 264.427L818.276 264.763C818.546 265.568 818.771 266.396 818.951 267.246C819.018 267.716 819.086 268.119 819.153 268.521C819.198 268.745 819.221 268.969 819.221 269.193L819.288 269.797V270.132C819.243 270.132 819.198 270.132 819.153 270.132C819.018 269.193 818.861 268.253 818.681 267.313C818.478 266.508 818.208 265.702 817.939 264.897L817.804 264.561C817.759 264.472 817.714 264.382 817.669 264.293C817.579 264.114 817.489 263.913 817.399 263.689L817.129 263.152C817.039 262.928 816.949 262.727 816.859 262.548C816.049 261.071 815.037 259.662 813.89 258.386C813.306 257.76 812.698 257.156 812.069 256.574Z" fill="#65DE47"/>
</g>
<g opacity="0.1">
<path d="M-283.476 282.375C-283.476 282.375 -87.3913 -93.875 264.377 26.8999C264.377 26.8999 129.972 98.9364 77.1802 184.898C33.5459 255.864 -75.8093 360.303 -283.476 282.375Z" fill="#F0F5EE"/>
<g style="mix-blend-mode:multiply">
<path d="M-185.975 279.805L-175.748 264.837C-172.249 260.025 -168.481 255.481 -164.982 250.67L-159.599 243.453L-153.678 236.503C-149.91 231.959 -146.142 227.415 -142.105 222.871C-125.957 205.23 -108.462 188.657 -90.1608 173.154C-53.2885 142.415 -12.379 116.487 30.9528 95.9056C74.2845 75.3239 120.039 59.5535 166.869 51C143.902 57.2369 121.474 64.8993 99.5838 73.9874C77.5142 82.719 55.8933 92.5199 34.7208 103.39C13.9969 114.349 -6.72699 126.377 -26.3743 139.208C-46.0216 152.305 -65.1308 166.204 -83.1632 181.44C-101.196 196.409 -118.421 212.714 -134.3 229.821C-150.179 247.195 -165.251 265.371 -178.708 284.616C-183.553 291.566 -188.308 298.694 -192.973 306C-195.664 305.644 -198.356 305.198 -201.047 304.664C-196.203 296.377 -191.358 287.824 -185.975 279.805Z" fill="#E8EEE7"/>
</g>
<path d="M2229.61 427.625C2229.61 427.625 2033.53 803.875 1681.76 683.1C1681.76 683.1 1816.16 611.064 1868.96 525.102C1912.59 454.136 2021.95 349.697 2229.61 427.625Z" fill="#659456"/>
<g style="mix-blend-mode:multiply">
<path d="M2132.11 430.195L2121.88 445.163C2118.38 449.975 2114.62 454.519 2111.12 459.33L2105.74 466.547L2099.81 473.497C2096.05 478.041 2092.28 482.585 2088.24 487.129C2072.09 504.77 2054.6 521.343 2036.3 536.846C1999.42 567.585 1958.51 593.513 1915.18 614.094C1871.85 634.676 1826.1 650.447 1779.27 659C1802.23 652.763 1824.66 645.101 1846.55 636.013C1868.62 627.281 1890.24 617.48 1911.41 606.61C1932.14 595.651 1952.86 583.623 1972.51 570.792C1992.16 557.695 2011.27 543.796 2029.3 528.56C2047.33 513.591 2064.56 497.286 2080.44 480.179C2096.32 462.805 2111.39 444.629 2124.84 425.384C2129.69 418.434 2134.44 411.306 2139.11 404C2141.8 404.356 2144.49 404.802 2147.18 405.336C2142.34 413.623 2137.49 422.176 2132.11 430.195Z" fill="#3E932A"/>
</g>
</g>
<g opacity="0.05">
<path d="M1148.98 548.513C1148.98 548.513 1251.88 351.196 1436.48 414.534C1436.48 414.534 1365.95 452.312 1338.25 497.393C1315.35 534.609 1257.96 589.38 1148.98 548.513Z" fill="#659456"/>
<g style="mix-blend-mode:multiply">
<path d="M1200.12 547.235L1205.48 539.369C1207.32 536.841 1209.29 534.453 1211.13 531.924L1213.95 528.132L1217.06 524.48C1219.04 522.092 1221.01 519.704 1223.13 517.317C1231.6 508.046 1240.78 499.337 1250.38 491.191C1269.72 475.038 1291.18 461.413 1313.91 450.597C1336.65 439.782 1360.65 431.495 1385.21 427C1373.17 430.277 1361.4 434.304 1349.92 439.08C1338.34 443.668 1327 448.818 1315.89 454.53C1305.02 460.289 1294.15 466.61 1283.84 473.352C1273.53 480.235 1263.51 487.539 1254.05 495.545C1244.59 503.411 1235.55 511.979 1227.22 520.969C1218.89 530.099 1210.99 539.65 1203.93 549.763C1201.39 553.415 1198.89 557.161 1196.45 561C1195.03 560.813 1193.62 560.579 1192.21 560.298C1194.75 555.943 1197.29 551.449 1200.12 547.235Z" fill="#3E932A"/>
</g>
</g>
</svg>
