<svg width="20" height="20" viewBox="0 0 20 20" fill="none" xmlns="http://www.w3.org/2000/svg">
<g id="Group">
<path id="Vector" d="M19.4755 14.6819L16.6786 11.8908C15.6797 10.894 13.9816 11.2928 13.582 12.5886C13.2823 13.4857 12.2834 13.9841 11.3844 13.7847C9.38661 13.2863 6.68957 10.6946 6.19012 8.60136C5.89045 7.70419 6.48979 6.70739 7.3888 6.40838C8.68738 6.00966 9.08694 4.31509 8.08804 3.31829L5.2911 0.527229C4.49198 -0.170535 3.29329 -0.170535 2.59406 0.527229L0.696143 2.42116C-1.20177 4.41477 0.895924 9.69784 5.59077 14.3828C10.2856 19.0678 15.5798 21.2608 17.5776 19.2672L19.4755 17.3732C20.1748 16.5758 20.1748 15.3796 19.4755 14.6819Z" fill="#6D9F5C"/>
</g>
</svg>
