<svg width="343" height="89" viewBox="0 0 343 89" fill="none" xmlns="http://www.w3.org/2000/svg">
<g opacity="0.1">
<path d="M342.476 3.65214C342.476 3.65214 317.078 53.3956 271.515 37.4281C271.515 37.4281 288.924 27.9043 295.762 16.5394C301.414 7.15718 315.578 -6.6506 342.476 3.65214Z" fill="#659456"/>
<g style="mix-blend-mode:multiply">
<path d="M305.054 18.75L303.729 20.729C303.276 21.3651 302.788 21.9659 302.335 22.602L301.638 23.5561L300.871 24.4749C300.383 25.0757 299.895 25.6764 299.372 26.2772C297.28 28.6095 295.014 30.8006 292.644 32.8502C287.868 36.9142 282.569 40.342 276.956 43.0631C271.344 45.7842 265.417 47.8692 259.352 49C262.326 48.1754 265.231 47.1624 268.067 45.9609C270.925 44.8065 273.726 43.5107 276.468 42.0736C279.152 40.6247 281.837 39.0345 284.382 37.3382C286.926 35.6066 289.402 33.769 291.737 31.7547C294.073 29.7757 296.304 27.6201 298.361 25.3584C300.417 23.0614 302.37 20.6583 304.113 18.1139C304.74 17.1951 305.356 16.2528 305.96 15.2868C306.309 15.334 306.658 15.3928 307.006 15.4635C306.379 16.559 305.751 17.6899 305.054 18.75Z" fill="#3E932A"/>
</g>
</g>
<path d="M77.618 67.6013C59.6321 93.1712 0.476562 88.6998 0.476562 88.6998V8.50447C0.476562 6.88717 0.937725 5.30339 1.80596 3.93891C3.36699 1.48565 6.07324 0 8.98104 0H81.4538C81.4538 0 92.6835 46.1832 77.618 67.6013Z" fill="#397768"/>
</svg>
